HIERARCHY
ROOT Hips
{
	OFFSET	0.000000	0.000000	0.000000
	CHANNELS 6 Xposition Yposition Zposition Zrotation Xrotation Yrotation
	JOINT LeftHip
	{
		OFFSET	4.740440	-3.195970	-0.322709
		CHANNELS 3 Zrotation Xrotation Yrotation
		JOINT LeftKnee
		{
			OFFSET	-1.605680	-15.592300	1.005510
			CHANNELS 3 Zrotation Xrotation Yrotation
			JOINT LeftAnkle
			{
				OFFSET	-0.632401	-16.421000	-1.413730
				CHANNELS 3 Zrotation Xrotation Yrotation
				End Site
				{
					OFFSET	0.008423	-2.933000	-1.684880
				}
			}
		}
	}
	JOINT RightHip
	{
		OFFSET	-4.740440	-3.195970	-0.322709
		CHANNELS 3 Zrotation Xrotation Yrotation
		JOINT RightKnee
		{
			OFFSET	1.605680	-15.592300	1.005510
			CHANNELS 3 Zrotation Xrotation Yrotation
			JOINT RightAnkle
			{
				OFFSET	0.632401	-16.421000	-1.413730
				CHANNELS 3 Zrotation Xrotation Yrotation
				End Site
				{
					OFFSET	-0.008423	-2.933000	-1.684880
				}
			}
		}
	}
	JOINT Chest
	{
		OFFSET	0.000000	3.468200	0.078401
		CHANNELS 3 Zrotation Xrotation Yrotation
		JOINT LeftCollar
		{
			OFFSET	3.857650	15.070700	-0.011583
			CHANNELS 3 Zrotation Xrotation Yrotation
			JOINT LeftShoulder
			{
				OFFSET	3.979720	-1.940530	-0.165223
				CHANNELS 3 Zrotation Xrotation Yrotation
				JOINT LeftElbow
				{
					OFFSET	0.615844	-10.986600	-0.673886
					CHANNELS 3 Zrotation Xrotation Yrotation
					JOINT LeftWrist
					{
						OFFSET	0.826843	-10.854500	1.034220
						CHANNELS 3 Zrotation Xrotation Yrotation
						End Site
						{
							OFFSET	-1.679080	-8.456540	0.936217
						}
					}
				}
			}
		}
		JOINT RightCollar
		{
			OFFSET	-3.857650	15.070700	-0.011583
			CHANNELS 3 Zrotation Xrotation Yrotation
			JOINT RightShoulder
			{
				OFFSET	-3.979720	-1.940530	-0.165223
				CHANNELS 3 Zrotation Xrotation Yrotation
				JOINT RightElbow
				{
					OFFSET	-0.615845	-10.986600	-0.673886
					CHANNELS 3 Zrotation Xrotation Yrotation
					JOINT RightWrist
					{
						OFFSET	-0.826843	-10.854500	1.034220
						CHANNELS 3 Zrotation Xrotation Yrotation
						End Site
						{
							OFFSET	1.679080	-8.456540	0.936217
						}
					}
				}
			}
		}
		JOINT Neck
		{
			OFFSET	0.000000	15.101400	0.055730
			CHANNELS 3 Zrotation Xrotation Yrotation
			JOINT Head
			{
				OFFSET	0.000000	4.185120	1.488260
				CHANNELS 3 Zrotation Xrotation Yrotation
				End Site
				{
					OFFSET	0.000000	7.773420	-0.106016
				}
			}
		}
	}
}
MOTION
Frames:     15
Frame Time: 0.016667
25.014584	37.626179	69.365616	10.056782	-6.946833	70.058319	-3.493443	7.034264	0.987539	-1.268004	9.219567	-1.046629	10.724874	-5.700111	10.642125	-16.385256	-24.992405	4.046195	16.257463	88.045555	19.876125	5.759912	19.228048	8.078899	14.674063	16.690638	-16.712036	12.114573	-2.908843	-2.820199	4.115410	-2.710173	-4.748568	0.142919	-13.424050	-9.810192	6.348120	6.645076	-22.545185	9.094029	5.160854	1.063959	-14.593577	3.372141	-18.851519	-9.148259	-3.935222	-4.191070	-22.223083	8.257076	11.302801	21.010286	21.427719	-32.200294	-2.525635	27.552439	-18.579962	
24.966988	37.614895	69.307114	10.202997	-7.122934	69.722000	-3.619107	7.025572	0.756668	-1.179649	9.438539	-0.828685	11.371625	-5.856639	11.457990	-16.322418	-25.577696	4.868073	66.695068	88.455154	-28.821005	5.291238	23.671747	4.110857	14.780342	16.918287	-16.541822	12.241017	-2.968765	-3.157102	4.315909	-2.943659	-4.632018	-0.159665	-14.230049	-10.040833	6.439731	6.311439	-22.249268	9.233640	5.245118	0.842778	-14.191360	2.525386	-19.700808	-9.349541	-3.281661	-7.207310	-22.361059	8.363002	11.004511	21.032974	21.548489	-32.670006	-2.800101	27.591562	-18.180325	
24.977390	37.609474	69.298935	10.256191	-7.203674	69.657181	-3.659673	7.048450	0.683179	-1.115873	9.575894	-1.041200	11.610841	-5.926604	11.973646	-16.334330	-25.749498	5.168184	89.174141	88.344124	-51.085796	5.227061	24.924562	2.849936	15.079173	16.883341	-16.697535	12.055434	-2.938073	-3.188785	4.395207	-3.048765	-4.586284	-0.279024	-14.474973	-10.147593	6.432233	6.216412	-22.212313	9.112247	5.327192	0.842457	-14.124577	2.245328	-19.927828	-9.394686	-3.069048	-8.362348	-21.293289	9.818656	8.071179	20.815374	21.641424	-32.753757	-2.816367	27.690559	-18.138350	
24.945585	37.589581	69.248009	10.542585	-7.357920	69.431091	-3.871227	7.197223	0.532618	-0.970509	9.803735	-0.922900	12.179247	-6.074234	12.598606	-16.358885	-26.126678	6.307624	-48.557194	92.784805	85.933838	3.806940	28.318274	0.851458	15.297995	17.156254	-16.701651	12.077024	-3.072363	-3.469927	4.634579	-3.417761	-4.529661	-0.606020	-15.160302	-10.458951	6.298524	6.059080	-22.302105	9.456485	5.296785	0.710882	-14.027489	1.624159	-20.600294	-9.452212	-2.613757	-12.014035	-20.944691	9.874220	8.229280	20.900993	21.643921	-33.115875	-3.150289	27.715567	-17.842781	
24.946009	37.582253	69.258049	10.606850	-7.376626	69.342110	-3.909356	7.203658	0.470887	-0.982059	9.939009	-1.133910	12.411728	-6.119205	13.094392	-16.361582	-26.281687	6.614369	-20.052933	94.177391	56.415733	2.360490	27.636391	1.395951	15.549726	17.135641	-16.794012	11.899429	-3.128435	-3.503269	4.677036	-3.528357	-4.506198	-0.711020	-15.385604	-10.606071	6.241192	6.020247	-22.374739	9.368088	5.328011	0.759469	-13.968849	1.458501	-20.855804	-9.441826	-2.527490	-13.190849	-20.580145	10.169260	7.711019	20.723707	21.657768	-33.149712	-3.224025	27.753883	-17.772169	
24.927158	37.546936	69.183891	10.694368	-7.353538	69.028412	-4.339123	7.077138	0.293326	-0.755892	10.166551	-1.027350	13.053726	-6.186213	13.883153	-16.400873	-26.824966	7.528205	-13.441179	95.955887	49.575478	0.112810	29.256907	0.232904	15.702014	17.159622	-16.661299	11.939191	-3.356193	-3.763021	4.800887	-3.817583	-4.441681	-1.010025	-16.259609	-11.090438	6.006207	5.957405	-22.760988	9.762903	5.418120	0.765631	-13.936609	0.909446	-21.528379	-9.388021	-2.168216	-16.246681	-19.613533	10.784357	6.400630	20.863852	21.536402	-33.275646	-3.265882	27.863068	-17.712259	
24.938990	37.529190	69.170593	10.688281	-7.311149	68.890541	-4.527438	6.983421	0.249034	-0.661235	10.308229	-1.247634	13.308929	-6.194073	14.404075	-16.533800	-27.340288	8.246348	-10.643226	97.770088	46.745155	-1.126686	28.680149	0.102994	15.763827	17.103807	-16.654493	11.951951	-3.380919	-3.777407	4.827442	-3.925291	-4.410005	-1.139413	-16.608185	-11.287115	5.911733	5.922585	-22.933168	9.886803	5.463400	0.832029	-13.976605	0.709897	-21.713022	-9.399984	-2.006401	-17.104614	-19.309620	10.921960	5.956522	20.841192	21.518551	-33.190628	-3.232234	27.881863	-17.726297	
24.955477	37.474163	69.067154	10.504568	-7.076553	68.422554	-5.110875	6.539288	0.263766	-0.496404	10.524459	-1.122171	13.976867	-6.198537	14.980975	-16.609125	-28.023438	9.050368	-8.402306	99.484818	44.364071	-3.358991	29.428406	-1.432935	16.002628	16.767525	-16.633715	11.980619	-3.508152	-3.742916	4.926640	-4.103239	-4.286495	-1.585679	-17.915327	-12.014995	5.523031	5.799469	-23.445965	10.302332	5.417339	1.092809	-14.168124	0.272684	-22.232164	-9.490097	-1.560450	-19.581881	-18.564590	11.029402	4.554799	20.655991	21.369200	-32.865902	-3.134987	27.893778	-17.702513	
24.952398	37.434593	69.024719	10.487910	-6.780352	68.091835	-5.488693	6.339447	0.451052	-0.616144	10.568908	-1.286945	14.254775	-6.128473	15.331728	-16.850430	-28.590643	9.812643	-7.688583	101.256035	43.719238	-4.428908	28.614019	-1.785480	15.854568	16.671076	-16.423107	11.964716	-3.555792	-3.750147	4.957757	-4.131492	-4.242332	-1.747836	-18.447437	-12.284764	5.383051	5.765615	-23.610720	10.396258	5.389895	1.165973	-14.211564	0.128823	-22.446850	-9.516038	-1.458440	-20.386036	-18.371861	11.000681	3.938187	20.560205	21.317585	-32.793785	-3.086487	27.851376	-17.657728	
24.983070	37.395832	68.942390	10.621705	-6.575250	67.997162	-5.916194	6.338193	-0.263877	-0.779866	10.543014	-0.694560	14.480501	-6.021399	15.618938	-17.132458	-28.916162	10.338997	-7.484856	102.929688	43.877102	-6.032584	28.404737	-2.220142	16.177637	16.584820	-16.715384	12.289391	-3.789290	-3.942639	4.882150	-4.089387	-3.938708	-2.314131	-20.190674	-13.128171	4.950315	5.646107	-23.921486	10.808538	5.352193	1.295976	-14.387910	-0.378715	-23.033039	-9.513436	-1.312077	-22.856737	-17.715883	10.766573	1.897813	20.473997	21.100796	-32.627430	-2.956815	27.728210	-17.595699	
25.001347	37.363869	68.877090	10.778162	-6.429860	67.934402	-6.161913	6.390850	-0.520316	-1.035504	10.544394	-0.403379	14.720942	-5.974339	15.719355	-17.393030	-29.137577	10.731860	-7.821090	104.520119	44.774864	-6.793077	27.482883	-2.532498	16.131016	16.655703	-16.771698	12.592216	-3.901980	-4.066734	4.735713	-4.045835	-3.770206	-2.526247	-20.788273	-13.418404	4.833144	5.582397	-23.952139	10.967907	5.355294	1.312265	-13.872199	-0.985246	-23.611534	-10.160453	-1.237528	-23.170609	-17.398226	10.574482	1.272783	20.679659	20.962080	-32.576527	-3.029969	27.653873	-17.690178	
25.038389	37.335320	68.812012	10.869734	-6.290853	67.869217	-6.351532	6.428454	-0.557698	-1.266800	10.544804	-0.184806	14.707684	-6.004564	15.706738	-17.694201	-29.402069	10.878714	-8.367062	106.075310	45.960480	-7.893376	26.408052	-2.444416	16.414499	16.606949	-17.027309	12.623816	-4.002157	-4.059781	5.215202	-4.089513	-3.697491	-3.244161	-22.596453	-14.263796	4.950407	4.635808	-24.071339	11.449368	5.376343	1.394035	-14.334812	-1.385967	-23.957602	-9.720226	-1.346827	-25.298538	-15.789526	9.711179	-0.405464	20.635662	20.923504	-32.495213	-2.724411	27.567360	-17.666527	
25.048586	37.315613	68.784126	10.954499	-6.144902	67.858200	-6.502463	6.470749	-0.295302	-1.371310	10.523746	-0.309102	14.668952	-6.009594	15.648491	-18.021404	-29.613142	10.756546	-8.813457	107.519096	46.665470	-8.834246	25.452393	-2.580646	16.374237	16.590839	-17.101315	12.960768	-4.091685	-4.194833	5.094831	-4.027990	-3.542990	-3.490509	-23.189135	-14.517017	4.724440	5.228943	-23.758383	11.641839	5.357615	1.420816	-14.148097	-1.736858	-24.269663	-10.061305	-1.242984	-25.647902	-14.741050	9.197050	-1.354075	20.774443	20.900455	-32.560143	-2.757271	27.541225	-17.671556	
25.090614	37.291615	68.687523	11.067049	-6.081923	67.888695	-6.491668	6.656579	0.465632	-1.765382	10.421844	-0.654456	14.620973	-6.017652	15.343203	-18.209829	-29.705343	10.465352	-9.258161	108.794312	47.238522	-9.778384	23.833479	-2.487894	16.544857	16.513861	-17.303419	13.085180	-4.103939	-4.292853	5.674005	-4.193271	-3.433574	-4.218936	-24.758001	-15.264227	4.900789	4.972348	-23.428078	12.192391	5.322941	1.394819	-14.486746	-1.981143	-24.616920	-9.732316	-1.483797	-28.259644	-12.067038	7.549516	-4.523860	21.362213	20.893196	-32.981674	-2.860511	27.569355	-17.610577	
25.085918	37.286350	68.652504	11.228088	-6.162944	67.938599	-6.447192	6.832072	0.689403	-1.860625	10.427406	-0.768748	14.588938	-6.016029	15.248474	-18.284283	-29.703800	10.123003	-9.680252	109.895424	47.788883	-10.670583	23.159174	-2.622252	16.792217	16.616726	-17.473322	13.279109	-4.180673	-4.418283	5.609672	-4.227832	-3.244346	-4.476269	-25.231956	-15.531851	4.974752	4.898220	-23.344080	12.256707	5.304853	1.392103	-14.338874	-2.334430	-25.074253	-9.963342	-1.508361	-28.624565	-9.813575	5.875339	-6.714472	21.685579	20.821644	-33.163067	-3.084290	27.550034	-17.658426	
